<svg xmlns="http://www.w3.org/2000/svg" viewBox="0 0 1200 560" width="1200" height="560" role="img" aria-label="Workflow run summary panel">
  <rect width="1200" height="560" fill="#0d1117"/>
  <rect x="70" y="46" width="1060" height="468" rx="18" fill="#161b22" stroke="#30363d" stroke-width="2"/>
  <path d="M70 64c0-9.941 8.059-18 18-18h1024c9.941 0 18 8.059 18 18v26H70V64z" fill="#161b22" stroke="#30363d" stroke-width="2"/>
  <circle cx="102" cy="68" r="6" fill="#30363d"/>
  <circle cx="126" cy="68" r="6" fill="#30363d"/>
  <circle cx="150" cy="68" r="6" fill="#30363d"/>
  <rect x="210" y="56" width="540" height="24" rx="12" fill="#0d1117" stroke="#30363d"/>
  <text x="232" y="72" font-family="Arial, sans-serif" font-size="14" fill="#8b949e">github.com/your-org/your-repo</text>

  <line x1="70" y1="108" x2="1130" y2="108" stroke="#30363d" stroke-width="2"/>
  <g font-family="Arial, sans-serif" font-size="20" fill="#8b949e">
    <text x="120" y="140">Code</text>
    <text x="215" y="140">Issues</text>
    <text x="315" y="140">Pull requests</text>
    <text x="500" y="140" fill="#f0f6fc">Actions</text>
  </g>
  <rect x="495" y="148" width="84" height="4" rx="2" fill="#2f81f7"/>

  <rect x="148" y="184" width="904" height="236" rx="16" fill="#161b22" stroke="#30363d"/>
  <circle cx="196" cy="232" r="18" fill="#238636"/>
  <text x="187" y="239" font-family="Arial, sans-serif" font-size="22" font-weight="700" fill="#ffffff">✓</text>
  <text x="228" y="238" font-family="Arial, sans-serif" font-size="28" fill="#f0f6fc">Daily Report Status</text>
  <text x="228" y="272" font-family="Arial, sans-serif" font-size="18" fill="#8b949e">Run status: success</text>
  <text x="876" y="238" font-family="Arial, sans-serif" font-size="22" fill="#f0f6fc">Duration: 23s</text>

  <line x1="180" y1="294" x2="1020" y2="294" stroke="#30363d"/>
  <text x="180" y="332" font-family="Arial, sans-serif" font-size="22" fill="#f0f6fc">Jobs</text>
  <rect x="180" y="350" width="840" height="50" rx="10" fill="#0d1117" stroke="#30363d"/>
  <circle cx="214" cy="375" r="13" fill="#238636"/>
  <text x="207" y="381" font-family="Arial, sans-serif" font-size="18" font-weight="700" fill="#ffffff">✓</text>
  <text x="240" y="382" font-family="Arial, sans-serif" font-size="22" fill="#f0f6fc">run-workflow</text>
  <text x="902" y="382" font-family="Arial, sans-serif" font-size="20" fill="#8b949e">Succeeded</text>

  <text x="600" y="532" text-anchor="middle" font-family="Arial, sans-serif" font-size="24" fill="#8b949e">Workflow run summary panel</text>
</svg>
