<svg xmlns="http://www.w3.org/2000/svg" width="1200" height="560" viewBox="0 0 1200 560" role="img" aria-label="Workflow run log">
  <rect width="1200" height="560" fill="#f6f8fa"/>

  <!-- Browser chrome -->
  <rect x="0" y="0" width="1200" height="44" rx="8" ry="8" fill="#ffffff" stroke="#d0d7de" stroke-width="1"/>
  <rect x="0" y="22" width="1200" height="22" fill="#ffffff"/>
  <rect x="200" y="10" width="800" height="24" rx="4" fill="#f6f8fa" stroke="#d0d7de" stroke-width="1"/>
  <text x="600" y="26" font-family="Arial,sans-serif" font-size="12" fill="#57606a" text-anchor="middle">github.com/your-org/your-repo</text>
  <!-- Traffic lights -->
  <circle cx="20" cy="22" r="6" fill="#ff5f57"/>
  <circle cx="40" cy="22" r="6" fill="#febc2e"/>
  <circle cx="60" cy="22" r="6" fill="#28c840"/>

  <!-- Nav tabs -->
  <rect x="0" y="44" width="1200" height="48" fill="#ffffff" stroke="#d0d7de" stroke-width="1"/>
  <text x="30" y="74" font-family="Arial,sans-serif" font-size="14" fill="#57606a" font-weight="normal">Code</text>
  <text x="90" y="74" font-family="Arial,sans-serif" font-size="14" fill="#57606a" font-weight="normal">Issues</text>
  <text x="168" y="74" font-family="Arial,sans-serif" font-size="14" fill="#57606a" font-weight="normal">Pull requests</text>
  <text x="309" y="74" font-family="Arial,sans-serif" font-size="14" fill="#0969da" font-weight="bold">Actions</text>
  <rect x="309" y="88" width="56" height="3" fill="#0969da" rx="2"/>
  <text x="396" y="74" font-family="Arial,sans-serif" font-size="14" fill="#57606a" font-weight="normal">Settings</text>

  <!-- Log panel dark -->
  <rect x="60" y="105" width="1080" height="410" rx="4" fill="#0d1117"/>
  <text x="80" y="135" font-family="monospace" font-size="13" fill="#57606a">▼  run-agent  (completed in 42s)</text>
  <line x1="60" y1="148" x2="1140" y2="148" stroke="#30363d" stroke-width="1"/>
  <text x="80" y="175" font-family="monospace" font-size="13" fill="#3fb950">▼  Run gh aw run hello-agent.md</text>
  <text x="100" y="200" font-family="monospace" font-size="12" fill="#c9d1d9">  Running agent: Hello Agent Workflow</text>
  <text x="100" y="222" font-family="monospace" font-size="12" fill="#c9d1d9">  Calling tool: list_open_issues</text>
  <text x="100" y="244" font-family="monospace" font-size="12" fill="#c9d1d9">  Found 3 open issues</text>
  <text x="100" y="266" font-family="monospace" font-size="12" fill="#c9d1d9">  Calling tool: get_recent_commits</text>
  <text x="100" y="288" font-family="monospace" font-size="12" fill="#c9d1d9">  Found 5 recent commits</text>
  <text x="100" y="310" font-family="monospace" font-size="12" fill="#c9d1d9">  Generating status report...</text>
  <text x="100" y="332" font-family="monospace" font-size="12" fill="#c9d1d9">  Report written to run summary.</text>
  <text x="80" y="360" font-family="monospace" font-size="13" fill="#3fb950">✓  Run gh aw run hello-agent.md  (15s)</text>
  <text x="80" y="390" font-family="monospace" font-size="13" fill="#3fb950">✓  Complete job</text>
  <text x="80" y="415" font-family="monospace" font-size="13" fill="#3fb950">✓  Post Set up job</text>
  <text x="600" y="540" font-family="Arial,sans-serif" font-size="24" fill="#57606a" text-anchor="middle">Workflow run log</text>

</svg>