<svg xmlns="http://www.w3.org/2000/svg" width="1200" height="560" viewBox="0 0 1200 560" role="img" aria-label="Skipped step in GitHub Actions">
  <rect width="1200" height="560" fill="#f6f8fa"/>

  <!-- Browser chrome -->
  <rect x="0" y="0" width="1200" height="44" rx="8" ry="8" fill="#ffffff" stroke="#d0d7de" stroke-width="1"/>
  <rect x="0" y="22" width="1200" height="22" fill="#ffffff"/>
  <rect x="200" y="10" width="800" height="24" rx="4" fill="#f6f8fa" stroke="#d0d7de" stroke-width="1"/>
  <text x="600" y="26" font-family="Arial,sans-serif" font-size="12" fill="#57606a" text-anchor="middle">github.com/your-org/your-repo</text>
  <!-- Traffic lights -->
  <circle cx="20" cy="22" r="6" fill="#ff5f57"/>
  <circle cx="40" cy="22" r="6" fill="#febc2e"/>
  <circle cx="60" cy="22" r="6" fill="#28c840"/>

  <!-- Nav tabs -->
  <rect x="0" y="44" width="1200" height="48" fill="#ffffff" stroke="#d0d7de" stroke-width="1"/>
  <text x="30" y="74" font-family="Arial,sans-serif" font-size="14" fill="#57606a" font-weight="normal">Code</text>
  <text x="90" y="74" font-family="Arial,sans-serif" font-size="14" fill="#57606a" font-weight="normal">Issues</text>
  <text x="168" y="74" font-family="Arial,sans-serif" font-size="14" fill="#57606a" font-weight="normal">Pull requests</text>
  <text x="309" y="74" font-family="Arial,sans-serif" font-size="14" fill="#0969da" font-weight="bold">Actions</text>
  <rect x="309" y="88" width="56" height="3" fill="#0969da" rx="2"/>
  <text x="396" y="74" font-family="Arial,sans-serif" font-size="14" fill="#57606a" font-weight="normal">Settings</text>

  <!-- Job steps panel -->
  <rect x="60" y="105" width="1080" height="400" rx="4" fill="#0d1117"/>
  <text x="80" y="135" font-family="monospace" font-size="14" fill="#57606a">▼  run-agent  (completed in 28s)</text>
  <line x1="60" y1="148" x2="1140" y2="148" stroke="#30363d" stroke-width="1"/>
  <!-- Steps -->
  <text x="80" y="180" font-family="monospace" font-size="13" fill="#3fb950">✓  Set up job  (2s)</text>
  <text x="80" y="215" font-family="monospace" font-size="13" fill="#3fb950">✓  Check out repository  (3s)</text>
  <text x="80" y="250" font-family="monospace" font-size="13" fill="#3fb950">✓  Run gh aw run  (18s)</text>
  <!-- Skipped step -->
  <rect x="60" y="262" width="1080" height="48" fill="#161b22"/>
  <text x="80" y="292" font-family="monospace" font-size="13" fill="#8b949e">—  Send Slack notification  (skipped)</text>
  <rect x="920" y="270" width="90" height="22" rx="10" fill="#30363d"/>
  <text x="965" y="285" font-family="Arial,sans-serif" font-size="11" fill="#8b949e" text-anchor="middle">skipped</text>
  <text x="80" y="338" font-family="monospace" font-size="13" fill="#3fb950">✓  Post Set up job  (1s)</text>
  <text x="80" y="375" font-family="monospace" font-size="13" fill="#3fb950">✓  Complete job</text>
  <text x="600" y="540" font-family="Arial,sans-serif" font-size="24" fill="#57606a" text-anchor="middle">Skipped step in GitHub Actions</text>

</svg>