<svg xmlns="http://www.w3.org/2000/svg" width="1200" height="560" viewBox="0 0 1200 560" role="img" aria-label="Conceptual screenshot of the GitHub Copilot app showing a repository session, agent chat, and pull request view">
  <rect width="1200" height="560" fill="#0d1117"/>
  <rect x="60" y="40" width="1080" height="44" rx="8" fill="#161b22" stroke="#30363d"/>
  <circle cx="86" cy="62" r="5" fill="#ff5f57"/>
  <circle cx="104" cy="62" r="5" fill="#febc2e"/>
  <circle cx="122" cy="62" r="5" fill="#28c840"/>
  <rect x="300" y="51" width="600" height="22" rx="11" fill="#0d1117" stroke="#30363d"/>
  <text x="600" y="66" text-anchor="middle" font-family="system-ui, -apple-system, sans-serif" font-size="13" fill="#8b949e">https://github.com/copilot</text>

  <rect x="60" y="84" width="1080" height="430" fill="#161b22" stroke="#30363d"/>

  <rect x="80" y="100" width="300" height="400" rx="8" fill="#0d1117" stroke="#30363d"/>
  <text x="230" y="130" text-anchor="middle" font-family="system-ui, -apple-system, sans-serif" font-size="16" font-weight="700" fill="#f0f6fc">Repository session</text>
  <rect x="104" y="154" width="252" height="92" rx="8" fill="#161b22" stroke="#30363d"/>
  <text x="124" y="186" font-family="system-ui, -apple-system, sans-serif" font-size="12" fill="#8b949e">Repository</text>
  <text x="124" y="212" font-family="system-ui, -apple-system, sans-serif" font-size="13" font-weight="600" fill="#f0f6fc">githubnext/gh-aw-workshop</text>
  <rect x="124" y="224" width="96" height="20" rx="10" fill="#1f6feb22" stroke="#2f81f7"/>
  <text x="172" y="238" text-anchor="middle" font-family="system-ui, -apple-system, sans-serif" font-size="12" font-weight="600" fill="#2f81f7">Session active</text>
  <rect x="104" y="270" width="252" height="198" rx="8" fill="#161b22" stroke="#30363d"/>
  <text x="124" y="300" font-family="system-ui, -apple-system, sans-serif" font-size="12" fill="#8b949e">Recent activity</text>
  <text x="124" y="326" font-family="system-ui, -apple-system, sans-serif" font-size="12" fill="#f0f6fc">• Opened workshop image task</text>
  <text x="124" y="350" font-family="system-ui, -apple-system, sans-serif" font-size="12" fill="#f0f6fc">• Reviewed SVG requirements</text>
  <text x="124" y="374" font-family="system-ui, -apple-system, sans-serif" font-size="12" fill="#f0f6fc">• Prepared light and dark assets</text>

  <rect x="400" y="100" width="380" height="400" rx="8" fill="#161b22" stroke="#30363d"/>
  <text x="590" y="130" text-anchor="middle" font-family="system-ui, -apple-system, sans-serif" font-size="16" font-weight="700" fill="#f0f6fc">Agent chat</text>
  <rect x="424" y="156" width="220" height="58" rx="12" fill="#0d1117" stroke="#30363d"/>
  <text x="440" y="182" font-family="system-ui, -apple-system, sans-serif" font-size="12" fill="#8b949e">You</text>
  <text x="440" y="202" font-family="system-ui, -apple-system, sans-serif" font-size="13" fill="#f0f6fc">Add theme-aware images</text>
  <rect x="536" y="236" width="220" height="72" rx="12" fill="#1f6feb22" stroke="#2f81f7"/>
  <text x="552" y="262" font-family="system-ui, -apple-system, sans-serif" font-size="12" fill="#2f81f7">Copilot</text>
  <text x="552" y="282" font-family="system-ui, -apple-system, sans-serif" font-size="13" fill="#f0f6fc">Done — created light.svg</text>
  <text x="552" y="300" font-family="system-ui, -apple-system, sans-serif" font-size="13" fill="#f0f6fc">and dark.svg</text>
  <rect x="424" y="336" width="332" height="132" rx="8" fill="#0d1117" stroke="#30363d"/>
  <text x="444" y="366" font-family="system-ui, -apple-system, sans-serif" font-size="12" fill="#8b949e">Summary</text>
  <text x="444" y="392" font-family="system-ui, -apple-system, sans-serif" font-size="12" fill="#f0f6fc">• Browser chrome and URL bar included</text>
  <text x="444" y="416" font-family="system-ui, -apple-system, sans-serif" font-size="12" fill="#f0f6fc">• Repository, chat, and PR panels shown</text>
  <text x="444" y="440" font-family="system-ui, -apple-system, sans-serif" font-size="12" fill="#f0f6fc">• Theme colors matched to GitHub UI</text>

  <rect x="800" y="100" width="320" height="400" rx="8" fill="#0d1117" stroke="#30363d"/>
  <text x="960" y="130" text-anchor="middle" font-family="system-ui, -apple-system, sans-serif" font-size="16" font-weight="700" fill="#f0f6fc">Pull requests</text>
  <rect x="824" y="156" width="272" height="74" rx="8" fill="#161b22" stroke="#30363d"/>
  <circle cx="846" cy="192" r="7" fill="#3fb950"/>
  <text x="862" y="188" font-family="system-ui, -apple-system, sans-serif" font-size="13" font-weight="600" fill="#f0f6fc">#42 Add theme-aware SVGs</text>
  <text x="862" y="210" font-family="system-ui, -apple-system, sans-serif" font-size="12" fill="#8b949e">Ready for review</text>

  <text x="600" y="542" text-anchor="middle" font-family="Arial, sans-serif" font-size="14" fill="#8b949e">Conceptual screenshot of the GitHub Copilot app showing a repository session, agent chat, and pull request view</text>
</svg>
